<svg width="52" height="32" viewBox="0 0 52 32" fill="none" xmlns="http://www.w3.org/2000/svg">
<path fill-rule="evenodd" clip-rule="evenodd" d="M15.5 0.5C6.93959 0.5 0 7.43959 0 16C0 24.5604 6.93959 31.5 15.5 31.5C19.5508 31.5 23.2386 29.9461 26 27.4019C22.9259 24.5694 21 20.5096 21 16C21 11.4904 22.9259 7.43056 26 4.59814C23.2386 2.0539 19.5508 0.5 15.5 0.5Z" fill="#2fed59"/>
<path opacity="0.8" d="M21 16C21 7.43959 27.9396 0.5 36.5 0.5C45.0604 0.5 52 7.43959 52 16C52 24.5604 45.0604 31.5 36.5 31.5C27.9396 31.5 21 24.5604 21 16Z" fill="#2fed59"/>
</svg>
