<svg width="74" height="45" viewBox="0 0 74 45" fill="none" xmlns="http://www.w3.org/2000/svg">
<g filter="url(#filter0_di_3369_17521)">
<rect x="4.75" y="0.623047" width="65" height="36" rx="2" fill="url(#paint0_linear_3369_17521)"/>
</g>
<mask id="mask0_3369_17521" style="mask-type:alpha" maskUnits="userSpaceOnUse" x="4" y="0" width="66" height="37">
<rect x="4.75" y="0.623047" width="64.6255" height="35.7713" rx="2" fill="url(#paint1_linear_3369_17521)"/>
</mask>
<g mask="url(#mask0_3369_17521)">
<path fill-rule="evenodd" clip-rule="evenodd" d="M-9.49609 17.0335L-7.93646 20.1169C-6.0649 23.2002 -2.63371 29.3669 0.797483 29.3669C4.22868 29.3669 7.65987 23.2002 10.7791 22.2752C14.2103 21.0419 17.6415 25.3586 21.0727 28.1336C24.5039 31.2169 27.9351 33.3752 31.3663 33.6836C34.7975 34.3002 38.2287 33.3752 41.6599 29.3669C44.7791 25.3585 48.2103 18.2669 51.6415 16.1085C55.0727 14.2585 58.5039 17.0335 61.9351 19.8085C65.3663 22.2752 68.7975 24.1252 72.2287 22.2752C75.6599 20.1169 78.7791 14.2585 82.2103 12.1002C85.6415 10.2502 89.0727 12.1002 90.9443 13.0252L92.5039 14.2585V38.3086H90.9443C89.0727 38.3086 85.6415 38.3086 82.2103 38.3086C78.7791 38.3086 75.6599 38.3086 72.2287 38.3086C68.7975 38.3086 65.3663 38.3086 61.9351 38.3086C58.5039 38.3086 55.0727 38.3086 51.6415 38.3086C48.2103 38.3086 44.7791 38.3086 41.6599 38.3086C38.2287 38.3086 34.7975 38.3086 31.3663 38.3086C27.9351 38.3086 24.5039 38.3086 21.0727 38.3086C17.6415 38.3086 14.2103 38.3086 10.7791 38.3086C7.65987 38.3086 4.22868 38.3086 0.797483 38.3086C-2.63371 38.3086 -6.0649 38.3086 -7.93646 38.3086H-9.49609V17.0335Z" fill="#166e29" fill-opacity="0.2"/>
<path d="M31.4163 24.1076L33.448 12.7991H36.6226L34.6544 24.1076H31.4163Z" fill="white"/>
<path d="M31.4163 24.1076L34.0194 12.7991H36.6226L34.6544 24.1076H31.4163Z" fill="white"/>
<path d="M46.1465 12.9245C45.5116 12.6732 44.4957 12.4219 43.2259 12.4219C40.0513 12.4219 37.7656 13.9925 37.7656 16.2542C37.7656 17.9505 39.3529 18.83 40.6228 19.3954C41.8926 19.9609 42.2735 20.3378 42.2735 20.8404C42.2735 21.5943 41.2577 21.9713 40.3688 21.9713C39.099 21.9713 38.4006 21.7828 37.3212 21.343L36.8768 21.1545L36.4323 23.7304C37.1942 24.0445 38.591 24.3586 40.0513 24.3586C43.4164 24.3586 45.6386 22.788 45.6386 20.4006C45.6386 19.0813 44.8132 18.0761 42.9084 17.2594C41.7656 16.694 41.0672 16.3798 41.0672 15.8144C41.0672 15.3118 41.6386 14.8092 42.9084 14.8092C43.9878 14.8092 44.7497 14.9977 45.3211 15.249L45.6386 15.3746L46.1465 12.9245Z" fill="white"/>
<path d="M46.1465 12.9245C45.5116 12.6732 44.4957 12.4219 43.2259 12.4219C40.0513 12.4219 38.3371 13.9925 38.3371 16.2542C38.3371 17.9505 39.3529 18.83 40.6228 19.3954C41.8926 19.9609 42.2735 20.3378 42.2735 20.8404C42.2735 21.5943 41.2577 21.9713 40.3688 21.9713C39.099 21.9713 38.4006 21.7828 37.3212 21.343L36.8768 21.1545L36.4323 23.7304C37.1942 24.0445 38.591 24.3586 40.0513 24.3586C43.4164 24.3586 45.6386 22.788 45.6386 20.4006C45.6386 19.0813 44.8132 18.0761 42.9084 17.2594C41.7656 16.694 41.0672 16.3798 41.0672 15.8144C41.0672 15.3118 41.6386 14.8092 42.9084 14.8092C43.9878 14.8092 44.7497 14.9977 45.3211 15.249L45.6386 15.3746L46.1465 12.9245Z" fill="white"/>
<path d="M51.6072 12.7991C50.8453 12.7991 50.2739 12.862 49.9564 13.6159L45.1946 24.1076H48.6231L49.258 22.2229H53.3215L53.7024 24.1076H56.75L54.0834 12.7991H51.6072ZM50.1469 20.3381C50.3374 19.7727 51.4167 17.0084 51.4167 17.0084C51.4167 17.0084 51.6707 16.3173 51.8612 15.8776L52.0516 16.9456C52.0516 16.9456 52.6866 19.7727 52.8135 20.401H50.1469V20.3381Z" fill="white"/>
<path d="M52.3691 12.7991C51.6072 12.7991 51.0358 12.862 50.7183 13.6159L45.1946 24.1076H48.6231L49.258 22.2229H53.3215L53.7024 24.1076H56.75L54.0834 12.7991H52.3691ZM50.1469 20.3381C50.4009 19.7099 51.4167 17.0084 51.4167 17.0084C51.4167 17.0084 51.6707 16.3173 51.8612 15.8776L52.0516 16.9456C52.0516 16.9456 52.6866 19.7727 52.8135 20.401H50.1469V20.3381Z" fill="white"/>
<path d="M25.5755 20.7149L25.2581 19.0814C24.6866 17.1967 22.8454 15.1235 20.8137 14.1183L23.6708 24.1702H27.0993L32.2421 12.8618H28.8136L25.5755 20.7149Z" fill="white"/>
<path d="M25.5755 20.7149L25.2581 19.0814C24.6866 17.1967 22.8454 15.1235 20.8137 14.1183L23.6708 24.1702H27.0993L32.2421 12.8618H29.4485L25.5755 20.7149Z" fill="white"/>
<path d="M16.75 12.7991L17.3214 12.9248C21.3849 13.8672 24.1787 16.2543 25.2581 19.0814L24.115 13.7415C23.9245 12.9876 23.3531 12.7991 22.6547 12.7991H16.75Z" fill="white"/>
<path d="M16.75 12.7991C20.8134 13.7415 24.1785 16.1917 25.2578 19.0188L24.1785 14.5582C23.988 13.8043 23.3531 13.3646 22.6547 13.3646L16.75 12.7991Z" fill="white"/>
<path d="M16.75 12.7991C20.8134 13.7415 24.1785 16.1917 25.2578 19.0188L24.496 16.5686C24.3055 15.8147 24.0515 15.0608 23.1626 14.7467L16.75 12.7991Z" fill="white"/>
<path d="M28.7499 20.3381L26.5912 18.2021L25.5753 20.5894L25.3213 19.0188C24.7499 17.1341 22.9087 15.0608 20.8769 14.0556L23.7341 24.1076H27.1626L28.7499 20.3381Z" fill="white"/>
<path d="M34.6544 24.1076L31.9245 21.3434L31.4163 24.1076H34.6544Z" fill="white"/>
<path d="M41.9561 20.2126C42.21 20.4639 42.337 20.6524 42.2735 20.9037C42.2735 21.6576 41.2577 22.0345 40.3688 22.0345C39.099 22.0345 38.4006 21.8461 37.3212 21.4063L36.8768 21.2178L36.4323 23.7936C37.1942 24.1078 38.591 24.4219 40.0513 24.4219C42.0831 24.4219 43.7338 23.8565 44.6862 22.8513L41.9561 20.2126Z" fill="white"/>
<path d="M45.6386 24.1077L48.6231 24.1076L49.258 22.2229H53.3215L53.7024 24.1076H56.75L55.6702 19.5214L51.8612 15.8776L52.0512 16.8828C52.0512 16.8828 52.6861 19.7099 52.8131 20.3382L50.1469 20.3381C50.4009 19.7099 51.4167 17.0084 51.4167 17.0084C51.4167 17.0084 51.6707 16.3173 51.8612 15.8776" fill="white"/>
</g>
<defs>
<filter id="filter0_di_3369_17521" x="-3.25" y="-5.37695" width="77" height="50" filterUnits="userSpaceOnUse" color-interpolation-filters="sRGB">
<feFlood flood-opacity="0" result="BackgroundImageFix"/>
<feColorMatrix in="SourceAlpha" type="matrix" values="0 0 0 0 0 0 0 0 0 0 0 0 0 0 0 0 0 0 127 0" result="hardAlpha"/>
<feOffset dy="4"/>
<feGaussianBlur stdDeviation="2"/>
<feColorMatrix type="matrix" values="0 0 0 0 0 0 0 0 0 0 0 0 0 0 0 0 0 0 0.25 0"/>
<feBlend mode="normal" in2="BackgroundImageFix" result="effect1_dropShadow_3369_17521"/>
<feBlend mode="normal" in="SourceGraphic" in2="effect1_dropShadow_3369_17521" result="shape"/>
<feColorMatrix in="SourceAlpha" type="matrix" values="0 0 0 0 0 0 0 0 0 0 0 0 0 0 0 0 0 0 127 0" result="hardAlpha"/>
<feOffset dx="-8" dy="-6"/>
<feGaussianBlur stdDeviation="40"/>
<feComposite in2="hardAlpha" operator="arithmetic" k2="-1" k3="1"/>
<feColorMatrix type="matrix" values="0 0 0 0 1 0 0 0 0 1 0 0 0 0 1 0 0 0 0.3 0"/>
<feBlend mode="normal" in2="shape" result="effect2_innerShadow_3369_17521"/>
</filter>
<linearGradient id="paint0_linear_3369_17521" x1="7.75761" y1="0.623054" x2="70.8977" y2="10.4039" gradientUnits="userSpaceOnUse">
<stop offset="0" stop-color="#2fed59"/>
<stop offset="1" stop-color="#23ad41"/>
</linearGradient>
<linearGradient id="paint1_linear_3369_17521" x1="-0.618252" y1="18.5086" x2="73.9179" y2="18.5086" gradientUnits="userSpaceOnUse">
<stop stop-color="#7152A7"/>
<stop offset="1" stop-color="#876ABA"/>
</linearGradient>
</defs>
</svg>
